<?xml version="1.0" encoding="UTF-8"?>
<svg width="100pt" height="100pt" version="1.1" viewBox="0 0 100 100" xmlns="http://www.w3.org/2000/svg">
 <path d="m81.25 39.582h-35.625c-2.918-5-8.332-8.332-14.375-8.332-9.168 0-16.668 7.5-16.668 16.668s7.5 16.668 16.668 16.668c6.25 0 11.457-3.332 14.375-8.332l6.457-0.003906h2.082l4.168-4.168 4.168 2.707 6.25-6.875 4.168 4.168 4.168-4.168 4.168 4.168 4.168-6.25zm-56.25 14.586c-3.543 0-6.25-2.707-6.25-6.25s2.707-6.25 6.25-6.25 6.25 2.707 6.25 6.25c0 3.5391-2.707 6.25-6.25 6.25z"/>
</svg>
